<svg width="32" height="32" viewBox="0 0 32 32" fill="none" xmlns="http://www.w3.org/2000/svg">
<path d="M30.5067 13.8799C29.1512 15.0125 27.402 15.5614 25.6425 15.4064C23.883 15.2515 22.2567 14.4053 21.12 13.0533C18.7467 10.2266 19.12 5.99994 21.9333 3.66661L22.6133 3.15994C21.5101 4.35612 20.8801 5.91298 20.8408 7.53974C20.8016 9.1665 21.3558 10.7519 22.4 11.9999C24.5733 14.5866 28.3333 15.0933 31.12 13.2933L30.5067 13.8799ZM28.1333 19.3333C27.1294 20.1798 25.9683 20.8197 24.7164 21.2163C23.4646 21.6129 22.1468 21.7584 20.8386 21.6445C19.5303 21.5305 18.2575 21.1593 17.0931 20.5522C15.9288 19.9451 14.8957 19.114 14.0533 18.1066C10.4933 13.8799 11.0533 7.57327 15.28 3.99994L16.5067 3.14661C14.9228 4.94075 14.0354 7.24382 14.0061 9.63691C13.9767 12.03 14.8073 14.3541 16.3467 16.1866C19.5733 19.9999 25.0667 20.8399 29.2133 18.2933L28.1333 19.3333ZM26.6267 25.8399C20.7067 30.8133 11.8667 30.0399 6.89334 24.1066C1.93334 18.1866 2.70667 9.33327 8.62667 4.38661L10.1067 3.33327C5.42667 8.39994 5.13334 16.3066 9.70667 21.7599C14.28 27.1999 22.12 28.2933 27.9467 24.5733L26.6267 25.8399Z" fill="white"/>
</svg>
